<svg aria-hidden="true" style="position:absolute;width:0;height:0;overflow:hidden" xmlns="http://www.w3.org/2000/svg">
  <defs>
    <symbol id="icon-burger" viewBox="0 0 32 32">
      <path stroke-linejoin="round" stroke-linecap="round" stroke-width="2.824" d="M1.882 10.51h28.235M1.882 21.49h28.235"/>
    </symbol>
    <symbol id="icon-facebook" viewBox="0 0 32 32">
      <path d="M19.352 5.181h.914V8.61h-1.143c-.457 0-.914 0-1.143.229-.229.229-.229.457-.229.99v1.219h2.514v2.895h-2.514v12.571h-3.886V13.866h-2.057v-2.895h2.057v-.99c0-1.676.229-2.895.686-3.429.686-.99 2.057-1.448 4.114-1.448.229.076.457.076.686.076z"/>
    </symbol>
    <symbol id="icon-instagram" viewBox="0 0 32 32">
      <path d="M28.718 10.756a9.264 9.264 0 0 0-.596-3.145 6.547 6.547 0 0 0-3.743-3.737 9.42 9.42 0 0 0-3.108-.596c-1.368-.061-1.801-.078-5.273-.078s-3.916 0-5.274.078a9.418 9.418 0 0 0-3.106.596 6.541 6.541 0 0 0-3.743 3.737 9.288 9.288 0 0 0-.596 3.101c-.061 1.367-.08 1.8-.08 5.265s0 3.909.08 5.265a9.335 9.335 0 0 0 .596 3.104 6.55 6.55 0 0 0 3.744 3.736c.989.386 2.04.604 3.106.639 1.369.061 1.803.08 5.274.08s3.916 0 5.274-.08a9.362 9.362 0 0 0 3.108-.595 6.555 6.555 0 0 0 3.743-3.737 9.35 9.35 0 0 0 .596-3.104c.061-1.365.08-1.798.08-5.265-.003-3.466-.003-3.906-.082-5.264zM15.99 22.531c-3.631 0-6.572-2.936-6.572-6.561s2.941-6.561 6.572-6.561c3.628 0 6.572 2.936 6.572 6.561s-2.944 6.561-6.572 6.561zm6.834-11.835a1.53 1.53 0 1 1 0-3.06 1.53 1.53 0 1 1 0 3.06z"/>
      <path d="M15.992 19.976a4.004 4.004 0 1 0 0-8.009 4.004 4.004 0 0 0 0 8.009z"/>
    </symbol>
    <symbol id="icon-x" viewBox="0 0 32 32">
      <path stroke-linejoin="round" stroke-linecap="round" stroke-width="2.4" d="M24 8 8 24M8 8l16 16"/>
    </symbol>
    <symbol id="icon-youtube" viewBox="0 0 32 32">
      <path d="M23.847 6.476c-1.295-.076-3.962-.152-8-.152h-.533c-3.886 0-6.476.076-7.771.229-1.752.152-2.971.61-3.657 1.219-.61.533-1.067 1.524-1.219 2.819-.076.838-.152 2.59-.152 5.257v.381c0 2.514.076 4.267.229 5.105.229 1.219.61 2.133 1.371 2.667.762.61 2.057.99 3.886 1.143 1.295.076 3.962.152 8 .152h.533c3.886 0 6.476-.076 7.771-.229 1.752-.152 2.971-.61 3.657-1.219.61-.533 1.067-1.524 1.219-2.819.076-.838.152-2.59.152-5.257v-.381c0-2.514-.076-4.267-.229-5.105-.229-1.219-.61-2.133-1.371-2.667-.762-.61-2.057-.99-3.886-1.143zm-2.971 9.371-8.381 5.029V10.819l8.381 5.029z"/>
    </symbol>
  </defs>
</svg>